<?xml version="1.0" encoding="UTF-8" standalone="no"?>
<!-- Created with Inkscape (http://www.inkscape.org/) -->

<svg
   width="120"
   height="120"
   viewBox="0 0 31.75 31.75"
   version="1.1"
   id="svg5"
   xmlns="http://www.w3.org/2000/svg"
   xmlns:svg="http://www.w3.org/2000/svg">
  <defs
     id="defs2" />
  <g
     id="layer1">
    <rect
       style="font-variation-settings:normal;opacity:1;vector-effect:none;fill:#d2e5cc;fill-opacity:1;fill-rule:evenodd;stroke:none;stop-color:#000000;stop-opacity:1"
       id="rect26154"
       width="32"
       height="32"
       x="0"
       y="0"
       ry="0.15345621" />
    <path
       style="fill:#989cd7;stroke:#000000;stroke-width:0.663612px;stroke-linecap:butt;stroke-linejoin:miter;stroke-opacity:1"
       d="M 7.5755073,4.0735024 C 9.367985,3.141922 11.792858,2.4800855 14.110187,2.2453587 16.189251,2.0137483 22.982318,2.18991 24.859449,2.1760043 24.850949,3.936449 24.88453,5.4830294 24.915424,7.4015275 22.428667,6.9723222 18.566292,5.9413481 17.86345,7.0869671 16.622943,7.8272712 17.126255,13.449717 17.112045,17.627406 c -0.01007,4.382802 0.430971,9.897227 0.486242,12.757728 -1.569681,0.565486 -2.538518,0.538384 -4.1305,-0.01602 -0.08762,-2.764117 0.150432,-8.48197 0.122117,-11.841404 C 13.566833,15.2734 13.492989,8.6337894 12.583502,6.9142089 10.880541,5.3762527 6.0243671,7.2389667 3.5134898,8.0925516 4.5019345,5.9524467 5.9891129,4.9810323 7.5755073,4.0735024 Z"
       id="path584" />
    <path
       style="fill:#cd8282;stroke:#000000;stroke-width:0.427687px;stroke-linecap:butt;stroke-linejoin:miter;stroke-opacity:1"
       d="m 7.5375306,21.38507 c 1.1335807,2.899722 4.2137374,5.433426 7.8955274,5.575044 3.43783,-0.127041 6.635808,-2.588815 7.481218,-5.466772 0.457508,-2.545718 0.362457,-10.048091 0.302834,-12.0000658 -3.613616,0.040928 -6.014552,-0.067012 -8.08348,-0.023993 -1.813054,-0.042076 -7.8974177,0.01509 -7.8974177,0.01509 0.061183,3.0611008 -0.3313657,9.2165708 0.3013183,11.9007028 z"
       id="path13261" />
    <rect
       style="font-variation-settings:normal;opacity:1;vector-effect:none;fill:#000000;fill-opacity:1;fill-rule:evenodd;stroke:none;stroke-width:0.110539;stroke-linecap:butt;stroke-linejoin:miter;stroke-miterlimit:4;stroke-dasharray:none;stroke-dashoffset:0;stroke-opacity:1;stop-color:#000000;stop-opacity:1"
       id="rect17169"
       width="4"
       height="6"
       x="13.245821"
       y="9.5188913"
       ry="0" />
  </g>
</svg>
